<svg xmlns="http://www.w3.org/2000/svg" xmlns:xlink="http://www.w3.org/1999/xlink" width="100" zoomAndPan="magnify" viewBox="0 0 75 37.5" height="50" preserveAspectRatio="xMidYMid meet" version="1.0"><defs><g/><clipPath id="0c0c8993f1"><path d="M 54.75 8.085938 L 62 8.085938 L 62 29 L 54.75 29 Z M 54.75 8.085938 " clip-rule="nonzero"/></clipPath><clipPath id="ebd79ff9f3"><path d="M 63.074219 8 L 71 8 L 71 28.320312 L 63.074219 28.320312 Z M 63.074219 8 " clip-rule="nonzero"/></clipPath><clipPath id="0d2b342b21"><path d="M 73 5 L 74.457031 5 L 74.457031 7 L 73 7 Z M 73 5 " clip-rule="nonzero"/></clipPath></defs><g clip-path="url(#0c0c8993f1)"><path fill="#fdc11f" d="M 54.757812 19.410156 L 54.757812 16.898438 C 55.265625 16.871094 55.648438 16.792969 55.910156 16.667969 C 56.167969 16.539062 56.390625 16.328125 56.578125 16.03125 C 56.769531 15.734375 56.898438 15.363281 56.964844 14.917969 C 57.023438 14.582031 57.050781 14 57.050781 13.167969 C 57.050781 11.8125 57.113281 10.867188 57.238281 10.332031 C 57.363281 9.800781 57.589844 9.371094 57.917969 9.046875 C 58.25 8.71875 58.726562 8.464844 59.355469 8.273438 C 59.78125 8.148438 60.453125 8.085938 61.367188 8.085938 L 61.921875 8.085938 L 61.921875 10.589844 C 61.148438 10.589844 60.648438 10.632812 60.429688 10.722656 C 60.210938 10.808594 60.046875 10.941406 59.941406 11.121094 C 59.835938 11.296875 59.785156 11.601562 59.785156 12.035156 C 59.785156 12.476562 59.753906 13.3125 59.691406 14.539062 C 59.65625 15.230469 59.566406 15.792969 59.417969 16.222656 C 59.269531 16.652344 59.085938 17.003906 58.859375 17.285156 C 58.628906 17.5625 58.28125 17.855469 57.816406 18.15625 C 58.226562 18.390625 58.5625 18.667969 58.828125 18.988281 C 59.089844 19.304688 59.289062 19.691406 59.429688 20.144531 C 59.566406 20.597656 59.660156 21.207031 59.699219 21.96875 C 59.75 23.128906 59.773438 23.867188 59.773438 24.1875 C 59.773438 24.648438 59.832031 24.972656 59.941406 25.152344 C 60.054688 25.335938 60.222656 25.472656 60.449219 25.566406 C 60.675781 25.660156 61.167969 25.707031 61.921875 25.707031 L 61.921875 28.222656 L 61.367188 28.222656 C 60.425781 28.222656 59.699219 28.148438 59.199219 27.996094 C 58.695312 27.847656 58.269531 27.597656 57.925781 27.246094 C 57.578125 26.898438 57.347656 26.46875 57.226562 25.953125 C 57.109375 25.441406 57.050781 24.632812 57.050781 23.527344 C 57.050781 22.242188 56.996094 21.410156 56.882812 21.023438 C 56.730469 20.464844 56.496094 20.066406 56.1875 19.824219 C 55.875 19.585938 55.398438 19.445312 54.757812 19.410156 " fill-opacity="1" fill-rule="nonzero"/></g><path fill="#fdc11f" d="M 71.304688 9.46875 L 69.664062 9.46875 L 69.664062 7.828125 L 71.304688 7.828125 L 71.304688 9.46875 " fill-opacity="1" fill-rule="nonzero"/><path fill="#fdc11f" d="M 70.917969 12.75 L 69.664062 12.75 L 69.664062 11.496094 L 70.917969 11.496094 L 70.917969 12.75 " fill-opacity="1" fill-rule="nonzero"/><g clip-path="url(#ebd79ff9f3)"><path fill="#fdc11f" d="M 66.144531 10.722656 L 66.144531 9.46875 L 67.398438 9.46875 L 67.398438 10.722656 Z M 69.332031 16.578125 C 69.019531 16.339844 68.785156 15.9375 68.632812 15.378906 C 68.546875 15.066406 68.496094 14.460938 68.480469 13.570312 L 67.398438 13.570312 L 67.398438 11.929688 L 68.457031 11.929688 C 68.429688 11.296875 68.375 10.804688 68.289062 10.449219 C 68.167969 9.9375 67.9375 9.503906 67.59375 9.152344 C 67.25 8.800781 66.828125 8.550781 66.324219 8.402344 C 65.824219 8.257812 65.101562 8.183594 64.15625 8.183594 L 63.601562 8.183594 L 63.601562 10.6875 C 64.390625 10.6875 64.898438 10.734375 65.125 10.828125 C 65.351562 10.921875 65.511719 11.058594 65.597656 11.230469 C 65.683594 11.40625 65.730469 11.753906 65.738281 12.277344 C 65.773438 13.941406 65.828125 15.015625 65.90625 15.507812 C 66.027344 16.21875 66.25 16.804688 66.578125 17.265625 C 66.816406 17.585938 67.191406 17.914062 67.710938 18.25 C 67.3125 18.480469 66.984375 18.75 66.730469 19.050781 C 66.472656 19.355469 66.269531 19.726562 66.117188 20.164062 C 65.964844 20.597656 65.867188 21.179688 65.832031 21.90625 C 65.777344 23.109375 65.75 23.921875 65.746094 24.347656 C 65.742188 24.773438 65.683594 25.078125 65.578125 25.253906 C 65.46875 25.433594 65.300781 25.570312 65.070312 25.664062 C 64.839844 25.757812 64.347656 25.804688 63.601562 25.804688 L 63.601562 28.320312 L 64.15625 28.320312 C 65.074219 28.320312 65.742188 28.253906 66.167969 28.128906 C 66.804688 27.941406 67.285156 27.683594 67.613281 27.359375 C 67.941406 27.035156 68.167969 26.605469 68.289062 26.066406 C 68.414062 25.527344 68.472656 24.582031 68.472656 23.226562 C 68.472656 22.402344 68.5 21.824219 68.558594 21.488281 C 68.632812 21.042969 68.765625 20.667969 68.949219 20.371094 C 69.136719 20.074219 69.355469 19.863281 69.617188 19.738281 C 69.875 19.613281 70.257812 19.535156 70.769531 19.507812 L 70.769531 16.992188 C 70.125 16.957031 69.648438 16.820312 69.332031 16.578125 " fill-opacity="1" fill-rule="nonzero"/></g><g clip-path="url(#0d2b342b21)"><path fill="#fdc11f" d="M 74.5 6.285156 L 73.246094 6.285156 L 73.246094 5.03125 L 74.5 5.03125 L 74.5 6.285156 " fill-opacity="1" fill-rule="nonzero"/></g><path fill="#fdc11f" d="M 68.21875 7.828125 L 65.878906 7.828125 L 65.878906 5.492188 L 68.21875 5.492188 L 68.21875 7.828125 " fill-opacity="1" fill-rule="nonzero"/><g fill="#000000" fill-opacity="1"><g transform="translate(0.496555, 27.093705)"><g><path d="M 12.046875 -8.875 C 12.046875 -7.894531 11.785156 -7.144531 11.265625 -6.625 C 11.835938 -6.101562 12.125 -5.328125 12.125 -4.296875 L 12.125 -3.25 C 12.125 -3.007812 12.113281 -2.773438 12.09375 -2.546875 C 12.070312 -2.328125 12.039062 -2.117188 12 -1.921875 C 11.957031 -1.722656 11.898438 -1.535156 11.828125 -1.359375 C 11.765625 -1.191406 11.679688 -1.035156 11.578125 -0.890625 C 11.398438 -0.609375 11.140625 -0.382812 10.796875 -0.21875 C 10.484375 -0.0625 10.09375 0.015625 9.625 0.015625 L 2.609375 0.015625 C 2.367188 0.015625 2.140625 -0.0390625 1.921875 -0.15625 C 1.710938 -0.28125 1.546875 -0.445312 1.421875 -0.65625 C 1.335938 -0.800781 1.28125 -0.960938 1.25 -1.140625 L 1.265625 -11.796875 C 1.285156 -11.859375 1.304688 -11.921875 1.328125 -11.984375 C 1.359375 -12.054688 1.390625 -12.125 1.421875 -12.1875 C 1.671875 -12.59375 2.03125 -12.8125 2.5 -12.84375 L 2.5 -12.859375 L 9.390625 -12.859375 C 10.347656 -12.859375 11.03125 -12.59375 11.4375 -12.0625 C 11.84375 -11.550781 12.046875 -10.78125 12.046875 -9.75 Z M 3.546875 -2.390625 C 3.546875 -2.359375 3.546875 -2.335938 3.546875 -2.328125 C 3.554688 -2.316406 3.5625 -2.3125 3.5625 -2.3125 L 8.984375 -2.3125 C 9.296875 -2.3125 9.515625 -2.378906 9.640625 -2.515625 C 9.765625 -2.660156 9.828125 -2.910156 9.828125 -3.265625 L 9.828125 -4.328125 C 9.828125 -4.660156 9.757812 -4.910156 9.625 -5.078125 C 9.476562 -5.242188 9.207031 -5.328125 8.8125 -5.328125 L 5.796875 -5.328125 C 5.660156 -5.328125 5.539062 -5.375 5.4375 -5.46875 C 5.332031 -5.570312 5.28125 -5.695312 5.28125 -5.84375 L 5.28125 -7.125 C 5.28125 -7.269531 5.332031 -7.390625 5.4375 -7.484375 C 5.539062 -7.585938 5.660156 -7.640625 5.796875 -7.640625 L 8.8125 -7.640625 C 9.21875 -7.640625 9.484375 -7.707031 9.609375 -7.84375 C 9.742188 -7.988281 9.8125 -8.21875 9.8125 -8.53125 L 9.8125 -9.609375 C 9.8125 -9.953125 9.75 -10.191406 9.625 -10.328125 C 9.5 -10.472656 9.285156 -10.546875 8.984375 -10.546875 L 3.578125 -10.546875 C 3.554688 -10.546875 3.546875 -10.515625 3.546875 -10.453125 Z M 3.546875 -2.390625 "/></g></g></g><g fill="#000000" fill-opacity="1"><g transform="translate(14.646174, 27.093705)"><g><path d="M 3.125 -12.859375 C 3.1875 -12.859375 3.273438 -12.828125 3.390625 -12.765625 C 3.503906 -12.703125 3.5625 -12.550781 3.5625 -12.3125 L 3.5625 -0.53125 C 3.5625 -0.289062 3.503906 -0.140625 3.390625 -0.078125 C 3.273438 -0.015625 3.1875 0.015625 3.125 0.015625 L 1.6875 0.015625 C 1.625 0.015625 1.535156 -0.015625 1.421875 -0.078125 C 1.304688 -0.140625 1.25 -0.289062 1.25 -0.53125 L 1.25 -12.3125 C 1.25 -12.550781 1.304688 -12.703125 1.421875 -12.765625 C 1.535156 -12.828125 1.625 -12.859375 1.6875 -12.859375 Z M 3.125 -12.859375 "/></g></g></g><g fill="#000000" fill-opacity="1"><g transform="translate(20.23114, 27.093705)"><g><path d="M 14.28125 -12.859375 C 14.800781 -12.859375 15.15625 -12.691406 15.34375 -12.359375 C 15.507812 -12.066406 15.59375 -11.5625 15.59375 -10.84375 L 15.59375 -0.53125 C 15.59375 -0.289062 15.535156 -0.140625 15.421875 -0.078125 C 15.304688 -0.015625 15.210938 0.015625 15.140625 0.015625 L 13.796875 0.015625 C 13.734375 0.015625 13.644531 -0.015625 13.53125 -0.078125 C 13.414062 -0.140625 13.359375 -0.289062 13.359375 -0.53125 L 13.359375 -9.90625 C 13.359375 -9.914062 13.359375 -9.921875 13.359375 -9.921875 C 13.359375 -9.929688 13.359375 -9.9375 13.359375 -9.9375 L 13.28125 -9.9375 C 13.257812 -9.9375 13.25 -9.925781 13.25 -9.90625 L 10.5625 -3.296875 C 10.457031 -2.972656 10.347656 -2.691406 10.234375 -2.453125 C 10.179688 -2.335938 10.117188 -2.234375 10.046875 -2.140625 C 9.984375 -2.046875 9.921875 -1.957031 9.859375 -1.875 C 9.703125 -1.707031 9.535156 -1.59375 9.359375 -1.53125 C 9.191406 -1.46875 8.984375 -1.4375 8.734375 -1.4375 L 8.09375 -1.4375 C 7.863281 -1.4375 7.660156 -1.46875 7.484375 -1.53125 C 7.390625 -1.5625 7.300781 -1.609375 7.21875 -1.671875 C 7.144531 -1.734375 7.066406 -1.800781 6.984375 -1.875 C 6.847656 -2.039062 6.722656 -2.234375 6.609375 -2.453125 C 6.503906 -2.691406 6.394531 -2.972656 6.28125 -3.296875 L 3.609375 -9.890625 C 3.597656 -9.921875 3.582031 -9.9375 3.5625 -9.9375 L 3.484375 -9.9375 C 3.484375 -9.9375 3.484375 -9.929688 3.484375 -9.921875 C 3.484375 -9.921875 3.484375 -9.914062 3.484375 -9.90625 L 3.484375 -0.53125 C 3.484375 -0.289062 3.425781 -0.140625 3.3125 -0.078125 C 3.207031 -0.015625 3.117188 0.015625 3.046875 0.015625 L 1.703125 0.015625 C 1.628906 0.015625 1.535156 -0.015625 1.421875 -0.078125 C 1.304688 -0.140625 1.25 -0.289062 1.25 -0.53125 L 1.25 -10.84375 C 1.25 -11.5625 1.332031 -12.066406 1.5 -12.359375 C 1.6875 -12.691406 2.046875 -12.859375 2.578125 -12.859375 L 4.015625 -12.859375 C 4.242188 -12.859375 4.425781 -12.835938 4.5625 -12.796875 C 4.738281 -12.742188 4.882812 -12.664062 5 -12.5625 C 5.050781 -12.5 5.101562 -12.429688 5.15625 -12.359375 C 5.21875 -12.285156 5.269531 -12.203125 5.3125 -12.109375 C 5.351562 -12.015625 5.394531 -11.90625 5.4375 -11.78125 C 5.488281 -11.664062 5.535156 -11.535156 5.578125 -11.390625 L 8.3125 -4.5 C 8.320312 -4.46875 8.332031 -4.445312 8.34375 -4.4375 C 8.351562 -4.4375 8.359375 -4.4375 8.359375 -4.4375 L 8.515625 -4.4375 C 8.535156 -4.4375 8.550781 -4.457031 8.5625 -4.5 L 11.328125 -11.390625 C 11.378906 -11.535156 11.425781 -11.664062 11.46875 -11.78125 C 11.507812 -11.90625 11.550781 -12.015625 11.59375 -12.109375 C 11.644531 -12.203125 11.695312 -12.285156 11.75 -12.359375 C 11.800781 -12.429688 11.851562 -12.5 11.90625 -12.5625 C 12.03125 -12.675781 12.171875 -12.753906 12.328125 -12.796875 C 12.460938 -12.835938 12.644531 -12.859375 12.875 -12.859375 Z M 14.28125 -12.859375 "/></g></g></g><g fill="#000000" fill-opacity="1"><g transform="translate(37.844062, 27.093705)"><g><path d="M 9.609375 -11.40625 L 14 -0.59375 C 14.0625 -0.445312 14.078125 -0.320312 14.046875 -0.21875 C 14.035156 -0.175781 14.003906 -0.125 13.953125 -0.0625 C 13.910156 -0.0078125 13.828125 0.015625 13.703125 0.015625 L 12.03125 0.015625 C 11.8125 0.015625 11.660156 -0.0976562 11.578125 -0.328125 L 7.71875 -9.984375 C 7.707031 -10.003906 7.703125 -10.015625 7.703125 -10.015625 L 7.640625 -10.015625 C 7.640625 -10.015625 7.632812 -10.007812 7.625 -10 C 7.625 -10 7.617188 -9.988281 7.609375 -9.96875 L 5.609375 -4.921875 L 7.546875 -4.921875 C 7.753906 -4.921875 7.898438 -4.816406 7.984375 -4.609375 L 8.546875 -3.21875 C 8.597656 -3.039062 8.578125 -2.890625 8.484375 -2.765625 C 8.398438 -2.617188 8.265625 -2.546875 8.078125 -2.546875 L 4.671875 -2.546875 L 3.78125 -0.3125 C 3.695312 -0.09375 3.550781 0.015625 3.34375 0.015625 L 1.625 0.015625 C 1.5 0.015625 1.410156 -0.0078125 1.359375 -0.0625 C 1.316406 -0.125 1.289062 -0.175781 1.28125 -0.21875 C 1.25 -0.3125 1.257812 -0.4375 1.3125 -0.59375 L 5.671875 -11.40625 C 5.878906 -11.957031 6.109375 -12.335938 6.359375 -12.546875 C 6.390625 -12.566406 6.425781 -12.59375 6.46875 -12.625 C 6.507812 -12.65625 6.550781 -12.679688 6.59375 -12.703125 C 6.90625 -12.921875 7.265625 -13.03125 7.671875 -13.03125 C 8.085938 -13.03125 8.46875 -12.898438 8.8125 -12.640625 C 9.15625 -12.378906 9.390625 -12.046875 9.515625 -11.640625 C 9.535156 -11.609375 9.550781 -11.570312 9.5625 -11.53125 C 9.582031 -11.488281 9.597656 -11.445312 9.609375 -11.40625 Z M 9.609375 -11.40625 "/></g></g></g></svg>